# xmcd
#
# Track frame offsets: 
#        150
#        12611
#        28177
#        43116
#        56949
#        75052
#        88084
#        101734
#        115823
#        133458
#        146039
#        158394
#        173706
#        189457
#
# Disc length: 2683 seconds
#
# Revision: 0
# Processed by: cddbd v1.5.1PL2 Copyright (c) Steve Scherf et al.
# Submitted via: ExactAudioCopy v0.95a3
#
DISCID=bd0a790e
DTITLE=Rico and Roney - Segura Peão
DYEAR=2000
DGENRE=Sertanejo
TTITLE0=Rico and Roney - Reggae Sertanejo
TTITLE1=Rico and Roney - A Mulher De Borracha
TTITLE2=Rico and Roney - Segura Peão
TTITLE3=Rico and Roney - Solidão
TTITLE4=Rico and Roney - Me Ensina A Te Esquecer
TTITLE5=Rico and Roney - Coisa Boa É Amar
TTITLE6=Rico and Roney - Moreninha Safadinha
TTITLE7=Rico and Roney - Fantasia De Um Sonho
TTITLE8=Rico and Roney - Como Fui Me Enganar
TTITLE9=Rico and Roney - Se Você Voltar
TTITLE10=Rico and Roney - Aeróbica Do Forró
TTITLE11=Rico and Roney - Desce Mais Uma
TTITLE12=Rico and Roney - Por Amor, Por Paixão
TTITLE13=Rico and Roney - Outro Alguém
EXTD=
EXTT0=
EXTT1=
EXTT2=
EXTT3=
EXTT4=
EXTT5=
EXTT6=
EXTT7=
EXTT8=
EXTT9=
EXTT10=
EXTT11=
EXTT12=
EXTT13=
PLAYORDER=
